<?xml version="1.0" encoding="utf-8"?>
<!-- Svg Vector Icons : http://www.onlinewebfonts.com/icon -->
<!DOCTYPE svg PUBLIC "-//W3C//DTD SVG 1.1//EN" "http://www.w3.org/Graphics/SVG/1.1/DTD/svg11.dtd">
<svg version="1.1" xmlns="http://www.w3.org/2000/svg" xmlns:xlink="http://www.w3.org/1999/xlink" x="0px" y="0px" viewBox="0 0 1000 1000" enable-background="new 0 0 1000 1000" xml:space="preserve">
<metadata> Svg Vector Icons : http://www.onlinewebfonts.com/icon </metadata>
<g><g><g><g><g><path d="M497.4,10C226.8,11.4,8.5,232,10,502.6C11.4,773.3,232.1,991.4,502.6,990c270.8-1.5,488.9-222,487.4-492.6C988.5,226.7,768.1,8.6,497.4,10z M502.2,910.2C275.7,911.3,91.3,728.7,90,502.2C88.8,275.7,271.3,91,497.8,89.8C724.4,88.6,909,271.3,910.2,497.7C911.4,724.3,728.7,908.9,502.2,910.2z M574.8,714.4l-2-366.3l-189,1.2l0.4,80.2l51.3-0.3l1.5,286l-54.4,0.2L383,792l237.2-1.3l-0.5-76.5L574.8,714.4z M502.8,294.1c46.2-0.2,74.1-31.1,73.9-69.2c-1.2-39-28.4-68.7-72.9-68.5c-44.3,0.3-73.3,30.4-73.1,69.3C430.9,263.7,459.1,294.4,502.8,294.1z"/></g></g></g></g><g></g><g></g><g></g><g></g><g></g><g></g><g></g><g></g><g></g><g></g><g></g><g></g><g></g><g></g><g></g></g>
</svg>