<?xml version="1.0" encoding="utf-8"?>
<!-- Svg Vector Icons : http://www.onlinewebfonts.com/icon -->
<!DOCTYPE svg PUBLIC "-//W3C//DTD SVG 1.1//EN" "http://www.w3.org/Graphics/SVG/1.1/DTD/svg11.dtd">
<svg version="1.1" xmlns="http://www.w3.org/2000/svg" xmlns:xlink="http://www.w3.org/1999/xlink" x="0px" y="0px" viewBox="0 0 1000 1000" enable-background="new 0 0 1000 1000" xml:space="preserve">
<metadata> Svg Vector Icons : http://www.onlinewebfonts.com/icon </metadata>
<g><g transform="translate(0.000000,512.000000) scale(0.100000,-0.100000)"><path d="M4635.2,5016.5c-36.4-3.8-140-17.3-230.2-26.9C3008.7,4820.9,1696.8,3998,902.8,2793.6C486.6,2160.6,235.3,1489.3,124.1,703C87.7,442.1,93.4-261.8,135.6-534.1c118.9-780.6,366.3-1421.2,788.3-2052.2c732.7-1089.4,1870-1856.6,3126.3-2107.9c356.7-70.9,533.2-88.2,949.4-88.2c535.1,0,878.4,49.9,1371.3,193.7c1726.2,508.3,3089.8,1996.6,3440.8,3757.3c72.9,366.3,88.2,531.3,88.2,978.2c-1.9,448.8-36.4,799.8-94,939.8c-78.6,186-331.8,239.7-483.3,99.7c-55.6-49.9-76.7-95.9-124.7-258.9c-157.3-550.5-372.1-916.8-751.9-1283.1c-377.8-366.3-861.2-609.9-1400.1-709.6c-253.2-46-767.2-46-1020.4,1.9C4897.9-852.5,4067.4-41.2,3825.8,1082.7c-32.6,161.1-42.2,260.8-42.2,560.1c-1.9,408.5,21.1,565.8,134.3,911c126.6,397,312.6,703.9,615.7,1016.5c362.5,377.8,774.8,617.6,1281.2,749.9c140,34.5,186,55.6,243.6,113.2c115.1,115.1,122.7,287.7,13.4,412.4c-69.1,76.7-118.9,95.9-372.1,136.2C5515.5,5010.7,4784.8,5033.7,4635.2,5016.5z M4481.7,4322.2c-840.1-688.6-1323.4-1662.9-1323.4-2669.8c0-734.6,285.8-1513.3,767.2-2100.2c579.2-703.9,1394.4-1154.6,2272.8-1256.3c782.5-88.2,1616.8,141.9,2311.2,638.7c159.2,115.1,556.2,494.9,696.2,665.5l71,86.3l-11.5-86.3c-126.6-1010.8-529.4-1848.9-1214.1-2533.6c-1001.2-1001.2-2409-1427-3868.5-1168.1c-845.8,149.6-1620.7,554.3-2234.4,1168.1c-654,654-1053,1451.9-1200.7,2399.4c-46,308.8-46,995.4,0,1304.2c241.7,1551.6,1206.4,2773.4,2641,3344.9c247.4,97.8,652.1,207.1,922.5,249.3C4579.5,4404.7,4581.5,4404.7,4481.7,4322.2z"/></g></g>
</svg>