<?xml version="1.0" encoding="utf-8"?>
<!-- Svg Vector Icons : http://www.onlinewebfonts.com/icon -->
<!DOCTYPE svg PUBLIC "-//W3C//DTD SVG 1.1//EN" "http://www.w3.org/Graphics/SVG/1.1/DTD/svg11.dtd">
<svg version="1.1" xmlns="http://www.w3.org/2000/svg" xmlns:xlink="http://www.w3.org/1999/xlink" x="0px" y="0px" viewBox="0 0 1000 1000" enable-background="new 0 0 1000 1000" xml:space="preserve">
<metadata> Svg Vector Icons : http://www.onlinewebfonts.com/icon </metadata>
<g><path d="M926.9,990c-16.1,0-32.3-6.2-44.6-18.5L28.5,117.7c-24.7-24.7-24.7-64.5,0-89.2c24.7-24.7,64.5-24.7,89.2,0l853.7,853.7c24.7,24.7,24.7,64.5,0,89.2C959.1,983.8,943,990,926.9,990z"/><path d="M73.1,990c-16.1,0-32.3-6.2-44.6-18.5c-24.7-24.7-24.7-64.5,0-89.2L882.3,28.5c24.7-24.7,64.5-24.7,89.2,0s24.7,64.5,0,89.2L117.7,971.5C105.4,983.8,89.3,990,73.1,990z"/></g>
</svg>